<mxfile host="app.diagrams.net" agent="Mozilla/5.0 (Windows NT 10.0; Win64; x64; rv:142.0) Gecko/20100101 Firefox/142.0" version="28.2.0">
  <diagram name="Page-1" id="0KImF_eYuqfADn61MM-i">
    <mxGraphModel dx="1442" dy="659" grid="1" gridSize="10" guides="1" tooltips="1" connect="1" arrows="1" fold="1" page="0" pageScale="1" pageWidth="850" pageHeight="1100" math="0" shadow="0">
      <root>
        <mxCell id="0" />
        <mxCell id="1" parent="0" />
        <mxCell id="J8UphRVy6SgX6_anwO_J-9" style="edgeStyle=orthogonalEdgeStyle;rounded=0;orthogonalLoop=1;jettySize=auto;html=1;exitX=0;exitY=0.25;exitDx=0;exitDy=0;entryX=1;entryY=0.25;entryDx=0;entryDy=0;" parent="1" source="J8UphRVy6SgX6_anwO_J-4" target="J8UphRVy6SgX6_anwO_J-5" edge="1">
          <mxGeometry relative="1" as="geometry" />
        </mxCell>
        <mxCell id="J8UphRVy6SgX6_anwO_J-4" value="Environment" style="rounded=0;whiteSpace=wrap;html=1;fillColor=#d5e8d4;gradientColor=#97d077;strokeColor=#82b366;" parent="1" vertex="1">
          <mxGeometry x="600" y="200" width="120" height="480" as="geometry" />
        </mxCell>
        <mxCell id="J8UphRVy6SgX6_anwO_J-5" value="" style="rounded=0;whiteSpace=wrap;html=1;fillColor=#fad9d5;strokeColor=#ae4132;" parent="1" vertex="1">
          <mxGeometry x="-80" y="160" width="450" height="520" as="geometry" />
        </mxCell>
        <mxCell id="J8UphRVy6SgX6_anwO_J-30" style="edgeStyle=orthogonalEdgeStyle;rounded=0;orthogonalLoop=1;jettySize=auto;html=1;exitX=0;exitY=0.5;exitDx=0;exitDy=0;entryX=1;entryY=0.5;entryDx=0;entryDy=0;" parent="1" source="J8UphRVy6SgX6_anwO_J-6" target="J8UphRVy6SgX6_anwO_J-29" edge="1">
          <mxGeometry relative="1" as="geometry" />
        </mxCell>
        <mxCell id="J8UphRVy6SgX6_anwO_J-6" value="Sensors" style="rounded=0;whiteSpace=wrap;html=1;" parent="1" vertex="1">
          <mxGeometry x="150" y="220" width="120" height="60" as="geometry" />
        </mxCell>
        <mxCell id="J8UphRVy6SgX6_anwO_J-7" value="Thermostat" style="text;html=1;align=center;verticalAlign=middle;whiteSpace=wrap;rounded=0;" parent="1" vertex="1">
          <mxGeometry x="-80" y="160" width="60" height="30" as="geometry" />
        </mxCell>
        <mxCell id="J8UphRVy6SgX6_anwO_J-12" value="" style="endArrow=classic;html=1;rounded=0;entryX=1;entryY=0.5;entryDx=0;entryDy=0;exitX=1;exitY=0.25;exitDx=0;exitDy=0;" parent="1" source="J8UphRVy6SgX6_anwO_J-5" target="J8UphRVy6SgX6_anwO_J-6" edge="1">
          <mxGeometry width="50" height="50" relative="1" as="geometry">
            <mxPoint x="400" y="370" as="sourcePoint" />
            <mxPoint x="450" y="320" as="targetPoint" />
          </mxGeometry>
        </mxCell>
        <mxCell id="J8UphRVy6SgX6_anwO_J-15" style="edgeStyle=orthogonalEdgeStyle;rounded=0;orthogonalLoop=1;jettySize=auto;html=1;exitX=0;exitY=0.5;exitDx=0;exitDy=0;entryX=1;entryY=0.25;entryDx=0;entryDy=0;" parent="1" source="J8UphRVy6SgX6_anwO_J-14" target="J8UphRVy6SgX6_anwO_J-5" edge="1">
          <mxGeometry relative="1" as="geometry" />
        </mxCell>
        <mxCell id="J8UphRVy6SgX6_anwO_J-14" value="Weather API" style="rounded=0;whiteSpace=wrap;html=1;fillColor=#60a917;fontColor=#ffffff;strokeColor=#2D7600;" parent="1" vertex="1">
          <mxGeometry x="600" y="160" width="120" height="40" as="geometry" />
        </mxCell>
        <mxCell id="J8UphRVy6SgX6_anwO_J-16" value="Indoor and Outdoor Temp" style="text;html=1;align=center;verticalAlign=middle;whiteSpace=wrap;rounded=0;" parent="1" vertex="1">
          <mxGeometry x="500" y="250" width="80" height="30" as="geometry" />
        </mxCell>
        <mxCell id="J8UphRVy6SgX6_anwO_J-18" value="Advanced Weather Data" style="text;html=1;align=center;verticalAlign=middle;whiteSpace=wrap;rounded=0;" parent="1" vertex="1">
          <mxGeometry x="500" y="140" width="80" height="30" as="geometry" />
        </mxCell>
        <mxCell id="J8UphRVy6SgX6_anwO_J-40" style="edgeStyle=orthogonalEdgeStyle;rounded=0;orthogonalLoop=1;jettySize=auto;html=1;exitX=0;exitY=0.25;exitDx=0;exitDy=0;entryX=1;entryY=0.25;entryDx=0;entryDy=0;" parent="1" source="J8UphRVy6SgX6_anwO_J-21" target="J8UphRVy6SgX6_anwO_J-32" edge="1">
          <mxGeometry relative="1" as="geometry" />
        </mxCell>
        <mxCell id="Z-DV5nDAn25HiYdE_MAv-6" style="edgeStyle=orthogonalEdgeStyle;rounded=0;orthogonalLoop=1;jettySize=auto;html=1;exitX=0.5;exitY=1;exitDx=0;exitDy=0;entryX=0.5;entryY=0;entryDx=0;entryDy=0;" edge="1" parent="1" source="J8UphRVy6SgX6_anwO_J-21" target="Z-DV5nDAn25HiYdE_MAv-2">
          <mxGeometry relative="1" as="geometry" />
        </mxCell>
        <mxCell id="J8UphRVy6SgX6_anwO_J-21" value="Performance Element: Linear Regression Model" style="rounded=0;whiteSpace=wrap;html=1;fillColor=#d0cee2;strokeColor=#56517e;" parent="1" vertex="1">
          <mxGeometry x="150" y="330" width="120" height="60" as="geometry" />
        </mxCell>
        <mxCell id="J8UphRVy6SgX6_anwO_J-22" value="Heater Relay" style="rounded=0;whiteSpace=wrap;html=1;" parent="1" vertex="1">
          <mxGeometry x="150" y="530" width="120" height="60" as="geometry" />
        </mxCell>
        <mxCell id="J8UphRVy6SgX6_anwO_J-23" value="" style="endArrow=classic;html=1;rounded=0;exitX=0.5;exitY=1;exitDx=0;exitDy=0;entryX=0.5;entryY=0;entryDx=0;entryDy=0;" parent="1" source="J8UphRVy6SgX6_anwO_J-6" target="J8UphRVy6SgX6_anwO_J-21" edge="1">
          <mxGeometry width="50" height="50" relative="1" as="geometry">
            <mxPoint x="400" y="370" as="sourcePoint" />
            <mxPoint x="450" y="320" as="targetPoint" />
          </mxGeometry>
        </mxCell>
        <mxCell id="J8UphRVy6SgX6_anwO_J-25" value="" style="endArrow=classic;html=1;rounded=0;exitX=1;exitY=0.5;exitDx=0;exitDy=0;entryX=0;entryY=0.75;entryDx=0;entryDy=0;" parent="1" source="J8UphRVy6SgX6_anwO_J-22" target="J8UphRVy6SgX6_anwO_J-4" edge="1">
          <mxGeometry width="50" height="50" relative="1" as="geometry">
            <mxPoint x="400" y="370" as="sourcePoint" />
            <mxPoint x="450" y="320" as="targetPoint" />
          </mxGeometry>
        </mxCell>
        <mxCell id="J8UphRVy6SgX6_anwO_J-26" value="Power" style="text;html=1;align=center;verticalAlign=middle;whiteSpace=wrap;rounded=0;" parent="1" vertex="1">
          <mxGeometry x="440" y="530" width="60" height="30" as="geometry" />
        </mxCell>
        <mxCell id="J8UphRVy6SgX6_anwO_J-27" value="Current State" style="text;html=1;align=center;verticalAlign=middle;whiteSpace=wrap;rounded=0;" parent="1" vertex="1">
          <mxGeometry x="210" y="290" width="60" height="30" as="geometry" />
        </mxCell>
        <mxCell id="J8UphRVy6SgX6_anwO_J-28" value="Recommended Duty Cycle" style="text;html=1;align=center;verticalAlign=middle;whiteSpace=wrap;rounded=0;" parent="1" vertex="1">
          <mxGeometry x="230" y="405" width="60" height="30" as="geometry" />
        </mxCell>
        <mxCell id="J8UphRVy6SgX6_anwO_J-29" value="Critic: Calculate Change from Last State" style="rounded=0;whiteSpace=wrap;html=1;fillColor=#fad7ac;strokeColor=#b46504;" parent="1" vertex="1">
          <mxGeometry x="-50" y="220" width="120" height="60" as="geometry" />
        </mxCell>
        <mxCell id="J8UphRVy6SgX6_anwO_J-31" value="Current State" style="text;html=1;align=center;verticalAlign=middle;whiteSpace=wrap;rounded=0;" parent="1" vertex="1">
          <mxGeometry x="70" y="220" width="80" height="30" as="geometry" />
        </mxCell>
        <mxCell id="J8UphRVy6SgX6_anwO_J-41" style="edgeStyle=orthogonalEdgeStyle;rounded=0;orthogonalLoop=1;jettySize=auto;html=1;exitX=1;exitY=0.75;exitDx=0;exitDy=0;entryX=0;entryY=0.75;entryDx=0;entryDy=0;" parent="1" source="J8UphRVy6SgX6_anwO_J-32" target="J8UphRVy6SgX6_anwO_J-21" edge="1">
          <mxGeometry relative="1" as="geometry" />
        </mxCell>
        <mxCell id="Z-DV5nDAn25HiYdE_MAv-7" style="edgeStyle=orthogonalEdgeStyle;rounded=0;orthogonalLoop=1;jettySize=auto;html=1;exitX=0.5;exitY=1;exitDx=0;exitDy=0;entryX=0.5;entryY=0;entryDx=0;entryDy=0;" edge="1" parent="1" source="J8UphRVy6SgX6_anwO_J-32" target="Z-DV5nDAn25HiYdE_MAv-1">
          <mxGeometry relative="1" as="geometry" />
        </mxCell>
        <mxCell id="J8UphRVy6SgX6_anwO_J-32" value="Learning Element: Update Regression Model" style="rounded=0;whiteSpace=wrap;html=1;fillColor=#b0e3e6;strokeColor=#0e8088;" parent="1" vertex="1">
          <mxGeometry x="-50" y="330" width="120" height="60" as="geometry" />
        </mxCell>
        <mxCell id="J8UphRVy6SgX6_anwO_J-33" value="" style="endArrow=classic;html=1;rounded=0;exitX=0.5;exitY=1;exitDx=0;exitDy=0;entryX=0.5;entryY=0;entryDx=0;entryDy=0;" parent="1" source="J8UphRVy6SgX6_anwO_J-29" target="J8UphRVy6SgX6_anwO_J-32" edge="1">
          <mxGeometry width="50" height="50" relative="1" as="geometry">
            <mxPoint x="400" y="370" as="sourcePoint" />
            <mxPoint x="450" y="320" as="targetPoint" />
          </mxGeometry>
        </mxCell>
        <mxCell id="J8UphRVy6SgX6_anwO_J-35" value="Updated Model" style="text;html=1;align=center;verticalAlign=middle;whiteSpace=wrap;rounded=0;" parent="1" vertex="1">
          <mxGeometry x="70" y="380" width="80" height="30" as="geometry" />
        </mxCell>
        <mxCell id="J8UphRVy6SgX6_anwO_J-42" value="Old Model" style="text;html=1;align=center;verticalAlign=middle;whiteSpace=wrap;rounded=0;" parent="1" vertex="1">
          <mxGeometry x="70" y="310" width="80" height="30" as="geometry" />
        </mxCell>
        <mxCell id="Z-DV5nDAn25HiYdE_MAv-3" style="edgeStyle=orthogonalEdgeStyle;rounded=0;orthogonalLoop=1;jettySize=auto;html=1;exitX=1;exitY=0.5;exitDx=0;exitDy=0;entryX=0;entryY=0.5;entryDx=0;entryDy=0;" edge="1" parent="1" source="Z-DV5nDAn25HiYdE_MAv-1" target="Z-DV5nDAn25HiYdE_MAv-2">
          <mxGeometry relative="1" as="geometry" />
        </mxCell>
        <mxCell id="Z-DV5nDAn25HiYdE_MAv-1" value="Problem Generator: Identify Missing Areas in Model" style="rounded=0;whiteSpace=wrap;html=1;fillColor=#bac8d3;strokeColor=#23445d;" vertex="1" parent="1">
          <mxGeometry x="-50" y="440" width="120" height="60" as="geometry" />
        </mxCell>
        <mxCell id="Z-DV5nDAn25HiYdE_MAv-5" style="edgeStyle=orthogonalEdgeStyle;rounded=0;orthogonalLoop=1;jettySize=auto;html=1;exitX=0.5;exitY=1;exitDx=0;exitDy=0;entryX=0.5;entryY=0;entryDx=0;entryDy=0;" edge="1" parent="1" source="Z-DV5nDAn25HiYdE_MAv-2" target="J8UphRVy6SgX6_anwO_J-22">
          <mxGeometry relative="1" as="geometry" />
        </mxCell>
        <mxCell id="Z-DV5nDAn25HiYdE_MAv-2" value="Is Away Mode?" style="rhombus;whiteSpace=wrap;html=1;" vertex="1" parent="1">
          <mxGeometry x="135" y="445" width="150" height="50" as="geometry" />
        </mxCell>
        <mxCell id="Z-DV5nDAn25HiYdE_MAv-8" value="Updated Model" style="text;html=1;align=center;verticalAlign=middle;whiteSpace=wrap;rounded=0;" vertex="1" parent="1">
          <mxGeometry x="-70" y="400" width="80" height="30" as="geometry" />
        </mxCell>
        <mxCell id="Z-DV5nDAn25HiYdE_MAv-9" value="Exploratory Duty Cycle" style="text;html=1;align=center;verticalAlign=middle;whiteSpace=wrap;rounded=0;" vertex="1" parent="1">
          <mxGeometry x="75" y="440" width="60" height="30" as="geometry" />
        </mxCell>
        <mxCell id="Z-DV5nDAn25HiYdE_MAv-10" value="Duty Cycle" style="text;html=1;align=center;verticalAlign=middle;whiteSpace=wrap;rounded=0;" vertex="1" parent="1">
          <mxGeometry x="220" y="495" width="60" height="30" as="geometry" />
        </mxCell>
      </root>
    </mxGraphModel>
  </diagram>
</mxfile>
